<?xml version="1.0" standalone="no"?>
<!DOCTYPE svg PUBLIC "-//W3C//DTD SVG 20010904//EN"
 "http://www.w3.org/TR/2001/REC-SVG-20010904/DTD/svg10.dtd">
<svg version="1.0" xmlns="http://www.w3.org/2000/svg"
 width="1500.000000pt" height="1124.000000pt" viewBox="0 0 1500.000000 1124.000000"
 preserveAspectRatio="xMidYMid meet">

<g transform="translate(0.000000,1124.000000) scale(0.100000,-0.100000)"
fill="#000000" stroke="none">
<path d="M0 5620 l0 -5620 7500 0 7500 0 0 5620 0 5620 -7500 0 -7500 0 0
-5620z m3453 2450 c-3 -11 -7 -20 -9 -20 -2 0 -4 9 -4 20 0 11 4 20 9 20 5 0
7 -9 4 -20z m67 -70 c0 -3 -11 -6 -25 -6 -14 -1 -25 2 -25 8 0 5 -4 6 -10 3
-5 -3 -10 -2 -10 4 0 23 69 15 70 -9z m-93 -82 c-1 -17 -7 -33 -13 -35 -17 -6
-27 46 -13 63 17 20 27 8 26 -28z m33 38 c0 -3 -4 -8 -10 -11 -5 -3 -10 -1
-10 4 0 6 5 11 10 11 6 0 10 -2 10 -4z m-70 -66 c0 -5 -2 -10 -4 -10 -3 0 -8
5 -11 10 -3 6 -1 10 4 10 6 0 11 -4 11 -10z m-10 -40 c-12 -7 -11 -10 5 -16
37 -13 63 -50 33 -45 -5 0 -8 -10 -8 -24 0 -16 6 -25 15 -25 8 0 15 8 15 17 0
10 3 13 9 8 5 -6 5 -30 1 -55 l-7 -45 -12 33 c-7 17 -17 32 -23 32 -5 0 -6 -4
-3 -10 3 -5 -2 -10 -12 -10 -10 0 -14 -3 -8 -8 6 -4 11 -16 10 -27 0 -11 6
-20 13 -20 17 0 32 -25 25 -42 -3 -7 -1 -13 4 -13 6 0 10 -13 9 -28 -1 -22 -5
-28 -18 -24 -13 3 -15 -1 -11 -17 4 -15 1 -21 -11 -21 -9 0 -16 -7 -16 -16 0
-10 6 -14 14 -11 8 3 17 -1 20 -9 4 -10 2 -12 -6 -8 -7 4 -8 3 -4 -4 4 -7 16
-12 27 -12 18 0 19 -5 13 -64 -5 -47 -3 -72 8 -94 10 -19 12 -35 6 -45 -6 -12
-1 -25 22 -48 34 -36 36 -44 16 -52 -14 -6 -27 -97 -14 -97 4 0 7 -8 6 -17 -3
-35 2 -50 17 -50 17 0 19 8 5 25 -7 8 -7 9 1 3 6 -5 17 -7 24 -5 15 6 27 -58
13 -67 -5 -3 -2 -14 7 -23 22 -21 12 -34 -12 -15 -9 8 -14 9 -10 2 4 -6 3 -15
-3 -18 -8 -5 -6 -15 4 -31 20 -29 20 -34 1 -34 -11 0 -15 -12 -15 -45 0 -52 8
-56 32 -17 10 15 18 21 18 15 0 -7 7 -13 16 -13 12 0 15 -7 11 -27 -9 -50 32
-122 71 -123 8 0 12 -8 10 -17 -2 -11 -11 -17 -23 -15 -17 2 -17 1 3 -11 12
-7 20 -15 17 -18 -3 -3 5 -5 16 -4 12 1 28 10 35 20 12 17 14 16 25 -9 7 -14
20 -26 31 -26 10 0 18 -5 18 -11 0 -5 5 -7 10 -4 6 3 10 -3 10 -15 0 -12 -4
-19 -9 -16 -5 3 -11 -2 -13 -12 -4 -15 1 -18 28 -19 44 -1 54 -9 54 -43 0 -16
7 -35 15 -44 8 -8 15 -27 15 -43 -1 -27 -1 -27 -16 -8 -16 19 -16 19 -9 -5 4
-14 13 -38 21 -54 16 -33 19 -60 3 -33 -5 9 -15 17 -20 17 -6 0 3 -19 20 -42
17 -23 31 -50 31 -59 0 -23 24 -67 46 -84 17 -13 16 -13 -11 -6 -23 5 -31 15
-35 36 -3 16 -11 30 -17 33 -15 4 -17 -14 -3 -23 6 -3 10 -17 10 -30 0 -15 7
-26 20 -30 25 -8 54 -50 45 -65 -3 -5 2 -10 14 -10 11 0 26 -9 33 -19 7 -10
32 -25 56 -32 23 -6 40 -14 38 -17 -8 -8 26 -86 51 -115 13 -16 23 -37 23 -47
0 -10 7 -31 15 -46 12 -25 13 -30 1 -34 -12 -4 -11 -10 5 -29 19 -23 19 -23
19 -2 0 30 16 26 33 -9 8 -16 12 -28 9 -27 -4 1 -7 -1 -7 -4 0 -3 -6 -13 -13
-22 -9 -10 -10 -17 -2 -22 5 -3 10 -15 10 -25 0 -10 9 -25 20 -33 18 -12 18
-15 5 -20 -8 -4 -15 -2 -15 3 0 6 -5 10 -12 10 -9 0 -9 -3 0 -12 18 -18 15
-28 -9 -28 -15 0 -19 5 -15 15 3 8 2 15 -2 16 -54 6 -54 6 -6 -38 26 -23 55
-43 63 -43 14 1 14 3 -1 14 -10 7 -18 19 -18 26 0 8 6 9 18 4 9 -4 31 -7 47
-7 26 1 30 -3 32 -25 0 -15 -4 -30 -10 -35 -9 -5 -6 -12 7 -22 14 -11 16 -15
5 -15 -8 0 -2 -10 15 -25 16 -14 33 -25 38 -25 5 0 6 -4 3 -10 -3 -5 5 -12 19
-16 13 -3 33 -15 43 -26 18 -21 18 -21 -5 -9 -22 11 -62 7 -50 -5 10 -9 108
-21 108 -13 0 5 5 9 11 9 6 0 9 -6 6 -14 -4 -10 3 -12 32 -9 27 3 41 -1 54
-15 18 -19 17 -21 -4 -36 -22 -15 -22 -16 -3 -37 19 -22 19 -22 -5 -14 l-25 8
26 -25 c19 -17 24 -28 17 -39 -6 -9 -9 -10 -9 -1 0 6 -4 12 -9 12 -5 0 -8 -11
-7 -25 0 -14 6 -25 12 -25 7 0 14 -9 17 -20 3 -13 14 -20 29 -20 23 0 23 0 -5
23 -20 15 -26 27 -21 40 5 14 9 15 20 6 11 -9 14 -9 14 0 0 7 5 9 11 6 5 -4 8
-12 6 -18 -6 -19 52 -69 74 -62 13 4 19 2 19 -9 0 -21 20 -31 33 -16 9 10 9
11 0 6 -15 -8 -18 10 -3 19 11 7 24 -37 17 -57 -7 -20 12 -48 28 -42 8 4 15 1
15 -5 0 -6 6 -11 14 -11 10 0 12 -7 8 -22 -4 -15 -2 -19 7 -13 10 6 11 1 6
-16 -5 -19 -4 -21 4 -9 6 8 11 11 11 7 0 -4 7 -4 16 1 19 10 54 -17 54 -42 0
-8 9 -18 21 -21 19 -6 19 -8 3 -19 -16 -12 -16 -14 3 -35 17 -18 23 -20 34 -9
18 16 54 23 44 9 -11 -19 7 -12 26 11 15 16 19 18 19 5 0 -8 -4 -17 -8 -19 -5
-1 -12 -18 -15 -35 -5 -25 -3 -33 8 -33 8 0 15 -4 15 -8 0 -5 20 -7 45 -6 25
1 46 -2 46 -7 1 -5 2 -14 3 -20 0 -7 10 -15 21 -20 11 -4 14 -8 6 -8 -8 -1
-12 -3 -9 -6 9 -9 38 7 38 21 0 7 -11 16 -25 20 -28 7 -32 19 -10 28 17 6 45
-19 45 -40 0 -8 8 -14 18 -13 10 0 12 3 5 6 -7 2 -13 11 -13 19 0 8 6 11 17 7
11 -4 14 -3 9 5 -5 8 1 12 15 12 22 0 22 0 4 -20 -18 -20 -18 -21 -1 -14 18 7
18 6 0 -22 -11 -15 -13 -25 -6 -21 9 6 12 -1 12 -26 0 -25 5 -36 18 -39 25 -7
42 1 36 17 -3 7 0 16 7 21 8 4 10 3 5 -4 -4 -7 -3 -12 3 -12 5 0 12 4 16 10 3
5 12 7 20 3 8 -3 15 0 15 6 0 6 7 11 15 11 8 0 14 -3 14 -7 -3 -19 2 -34 9
-29 12 7 92 -15 92 -25 0 -5 7 -6 15 -3 14 6 20 -6 16 -29 -1 -5 3 -6 9 -2 5
3 10 1 10 -6 0 -7 3 -9 7 -6 8 9 43 -22 43 -37 0 -8 -3 -7 -8 0 -5 9 -10 8
-19 -1 -9 -10 -6 -15 12 -25 16 -8 21 -18 17 -33 -4 -17 -2 -19 16 -15 12 4
25 2 28 -4 4 -6 9 -6 14 2 11 18 41 4 34 -15 -4 -9 -13 -14 -20 -11 -15 6 -20
-9 -6 -18 4 -2 24 -7 45 -11 32 -6 36 -5 31 9 -3 9 -10 13 -15 10 -5 -3 -9 -1
-9 5 0 5 5 13 10 16 15 10 12 35 -5 35 -8 0 -15 5 -15 10 0 6 6 10 13 10 8 0
7 4 -3 10 -11 7 -11 10 -2 10 7 0 19 -15 27 -32 7 -18 16 -32 19 -30 16 6 25
0 20 -13 -4 -8 -1 -15 5 -15 6 0 11 9 11 20 0 11 5 20 11 20 6 0 9 -9 6 -19
-6 -26 43 -64 60 -46 8 9 8 16 1 23 -6 6 -7 15 -4 21 13 20 24 11 30 -24 7
-37 39 -64 52 -43 4 7 3 8 -4 4 -7 -4 -12 -2 -12 3 0 6 5 11 11 11 5 0 8 4 5
9 -3 4 6 13 20 20 31 14 34 14 34 1 0 -5 -7 -10 -15 -10 -8 0 -15 -4 -15 -10
0 -5 11 -10 23 -10 34 0 87 -29 87 -47 0 -10 6 -13 16 -9 19 7 47 -12 38 -25
-3 -5 4 -9 15 -9 30 0 26 -19 -5 -31 -29 -10 -28 -17 4 -24 15 -2 19 1 16 10
-5 11 -1 12 19 2 14 -6 23 -15 21 -18 -5 -9 22 -20 60 -25 34 -4 31 -2 41 -34
7 -21 6 -23 -6 -13 -19 16 -71 21 -76 7 -2 -7 5 -10 20 -7 14 3 33 0 44 -5 20
-11 67 -91 58 -100 -3 -3 -5 0 -5 7 0 7 -7 11 -15 8 -8 -4 -17 -2 -20 3 -4 6
-14 6 -26 -1 -11 -5 -30 -8 -42 -5 -12 3 -17 3 -11 0 7 -3 9 -15 6 -26 -4 -17
-2 -20 11 -15 11 4 17 1 17 -8 0 -16 -30 -9 -42 9 -5 7 -8 4 -8 -6 0 -10 -6
-18 -12 -18 -7 -1 -2 -10 11 -20 13 -11 18 -20 11 -20 -6 0 -10 -6 -7 -12 2
-7 12 -12 21 -10 22 4 45 -15 57 -45 5 -13 14 -23 20 -23 6 0 9 7 5 15 -3 8
-1 15 4 15 6 0 10 -5 10 -10 0 -6 12 -4 29 4 22 12 31 12 41 3 10 -9 12 -9 8
3 -8 24 18 43 42 30 11 -6 20 -14 21 -18 0 -4 2 -17 5 -29 2 -15 -1 -23 -11
-24 -43 -4 -42 -2 -36 -40 0 -7 15 -10 36 -7 22 2 34 0 32 -6 -2 -6 -11 -10
-21 -8 -11 2 -16 -4 -16 -19 0 -14 5 -19 14 -16 8 3 17 -1 20 -10 4 -8 13 -13
21 -9 19 7 47 -3 39 -15 -3 -5 1 -9 10 -9 8 0 17 6 20 13 4 6 4 2 2 -10 -3
-15 0 -20 10 -16 8 3 11 9 8 14 -3 5 0 9 5 9 6 0 11 -4 11 -10 0 -5 11 -10 24
-10 24 0 41 -24 30 -42 -4 -6 1 -8 15 -3 16 5 23 1 31 -19 5 -14 12 -26 14
-26 3 0 3 7 -1 17 -5 14 -1 15 36 10 34 -4 41 -2 37 9 -4 11 -1 11 18 -1 24
-16 27 -29 13 -52 -11 -18 -24 -16 -24 2 0 8 4 15 9 15 4 0 8 4 8 9 0 5 -15 4
-35 -2 -38 -11 -47 -27 -15 -27 10 0 23 -6 27 -13 4 -8 16 -16 26 -20 20 -7
23 -27 4 -27 -7 0 -18 5 -25 12 -6 6 -15 8 -19 4 -4 -4 -1 -11 6 -15 7 -5 10
-14 7 -20 -10 -15 7 -14 23 2 10 9 15 9 18 0 2 -7 11 -9 20 -6 10 4 14 0 12
-13 -2 -10 8 -31 23 -45 20 -20 30 -24 43 -16 11 6 15 6 12 0 -3 -5 2 -17 13
-25 17 -15 18 -15 16 5 -2 12 -7 30 -11 40 -9 22 6 40 28 32 9 -4 14 -15 12
-28 -4 -21 -4 -21 10 -3 13 17 18 17 44 6 17 -7 37 -10 46 -7 8 4 17 2 20 -3
4 -6 0 -10 -8 -10 -14 0 -30 -37 -22 -50 2 -4 25 2 50 14 31 15 45 27 45 41 0
16 2 17 9 5 6 -8 7 -18 4 -23 -3 -5 4 -6 16 -2 15 4 21 2 21 -9 0 -8 -4 -18
-10 -21 -5 -3 -10 -1 -10 4 0 19 -17 12 -23 -9 -8 -30 7 -33 35 -7 24 22 26
23 36 6 9 -13 9 -20 0 -25 -7 -4 -8 -3 -4 4 4 7 1 12 -8 12 -23 0 -28 -17 -6
-23 11 -3 26 1 34 8 8 8 18 10 27 4 8 -5 22 -9 33 -9 15 0 16 3 6 15 -7 8 -15
13 -19 11 -4 -3 -8 6 -9 20 -2 28 11 30 50 10 39 -21 95 -25 83 -7 -3 6 26 9
70 8 41 -1 75 -5 75 -9 0 -11 71 -10 88 1 7 4 12 12 10 17 -6 17 17 13 52 -9
19 -12 42 -25 50 -29 8 -5 1 -6 -16 -3 -21 4 -35 1 -44 -10 -10 -12 -10 -15 3
-15 8 0 23 -3 33 -7 11 -4 15 -3 11 4 -5 8 1 7 18 0 14 -7 25 -18 25 -26 0
-16 -66 -7 -89 12 -11 10 -13 9 -9 -3 2 -8 18 -18 34 -21 32 -7 20 -15 -31
-22 -24 -3 -22 -4 11 -6 22 0 45 -6 52 -13 9 -9 12 -8 12 4 0 9 9 18 20 21 13
3 18 10 14 21 -6 17 11 23 20 7 3 -4 32 -11 64 -15 43 -5 70 -15 100 -37 23
-17 42 -36 43 -42 5 -56 2 -81 -9 -84 -8 -3 -10 1 -5 13 4 12 3 15 -5 10 -7
-4 -12 -16 -12 -27 0 -11 5 -17 10 -14 6 3 10 2 10 -4 0 -5 -4 -12 -9 -15 -11
-7 -2 -46 10 -46 5 0 9 7 9 15 0 22 15 18 29 -7 6 -13 10 -16 7 -7 -5 20 34
18 85 -4 20 -9 39 -13 43 -10 3 4 6 1 6 -7 0 -10 3 -10 16 1 23 19 54 19 54 0
1 -14 2 -14 14 2 14 18 32 24 21 7 -10 -16 12 -12 29 5 15 16 31 21 22 7 -2
-4 15 -7 39 -7 24 0 41 -4 38 -9 -3 -4 5 -5 17 -1 15 5 20 4 16 -4 -6 -10 6
-15 27 -12 4 0 7 -3 7 -9 0 -5 12 -10 26 -10 14 0 22 -4 19 -10 -3 -6 1 -7 9
-4 9 3 13 11 9 17 -3 6 -1 7 5 3 7 -4 12 -14 12 -22 0 -8 5 -14 10 -14 6 0 10
5 10 11 0 16 43 6 48 -11 5 -13 3 -13 -13 0 -16 13 -18 13 -13 0 3 -9 16 -15
31 -14 15 1 27 -2 27 -6 0 -8 54 -30 71 -30 5 0 9 7 9 15 0 8 7 15 15 15 8 0
15 5 15 10 0 18 22 10 27 -10 3 -11 12 -20 21 -20 8 0 23 -6 31 -14 9 -7 40
-16 69 -19 49 -6 53 -5 47 13 -5 15 -3 18 9 14 28 -11 17 4 -14 20 -21 10 -30
11 -30 3 0 -23 -59 -17 -84 8 -25 25 -25 25 -3 25 12 0 29 -5 37 -11 12 -9 10
-10 -9 -5 -13 3 -20 1 -15 -4 9 -9 30 -13 53 -11 11 1 11 4 1 16 -6 8 -9 19
-5 25 3 5 2 10 -3 10 -5 0 -9 7 -9 15 0 23 21 12 25 -12 3 -21 52 -51 52 -33
0 6 -7 10 -16 10 -9 0 -14 6 -11 13 5 13 -18 51 -31 53 -20 2 -62 25 -62 33 0
6 10 15 22 22 18 10 24 8 37 -9 9 -11 33 -24 54 -27 22 -4 37 -13 37 -21 0 -8
-4 -14 -9 -14 -5 0 -11 -7 -15 -15 -3 -8 0 -14 7 -12 7 1 11 -4 9 -10 -1 -7 2
-13 8 -13 5 0 10 -11 10 -24 0 -13 7 -27 16 -30 12 -4 14 -1 9 14 -5 14 -2 20
9 20 9 0 16 7 16 15 0 8 -9 15 -20 15 -11 0 -20 5 -20 10 0 6 -8 10 -17 10
-15 0 -15 2 2 18 18 17 87 24 101 9 13 -12 26 -8 21 7 -5 12 2 13 30 9 31 -5
35 -4 30 10 -9 24 7 21 43 -9 24 -20 28 -29 19 -40 -12 -15 -4 -34 15 -34 7 0
22 -13 34 -30 21 -28 62 -42 62 -20 0 6 -6 10 -12 10 -22 0 -41 17 -33 29 5 9
10 9 21 0 8 -6 14 -8 14 -3 1 5 12 -4 26 -21 l26 -30 -16 32 c-9 17 -24 33
-33 36 -10 2 3 4 29 4 30 0 49 -5 52 -14 3 -7 10 -13 17 -13 6 0 9 7 5 15 -3
8 -1 15 3 15 5 0 11 -7 15 -15 3 -8 10 -15 16 -15 8 0 8 6 1 17 -7 13 -5 23 6
35 15 17 14 18 -5 18 -11 0 -24 5 -27 10 -4 6 -12 10 -18 9 -26 -3 -35 2 -40
21 -3 14 -1 18 6 13 7 -4 19 -8 27 -10 8 -1 20 -10 27 -19 14 -20 28 -13 20
10 -3 8 -23 20 -44 25 -46 13 -76 31 -53 31 8 0 30 -4 49 -10 27 -8 43 -6 79
10 54 24 78 25 86 4 5 -13 15 -15 46 -10 32 5 40 3 40 -9 0 -9 -4 -14 -9 -10
-5 3 -12 1 -16 -5 -3 -5 -16 -10 -27 -10 -11 0 -27 -8 -34 -17 -12 -17 -14
-17 -36 5 -14 12 -29 22 -35 22 -6 0 -13 6 -16 13 -3 8 -7 6 -12 -6 -9 -21 21
-86 40 -88 8 -1 20 -2 25 -3 6 -1 9 1 8 4 -5 9 26 38 37 35 41 -11 54 -19 58
-36 5 -19 37 -27 37 -9 0 6 -4 10 -10 10 -5 0 -10 8 -10 18 0 23 47 65 62 56
8 -5 9 -1 4 12 -6 15 -5 17 5 7 20 -20 30 -15 25 12 -3 14 -1 25 4 25 15 0 21
-18 8 -23 -7 -3 6 -3 29 -2 24 2 45 -1 48 -6 3 -5 -1 -6 -11 -2 -14 5 -15 3
-5 -15 16 -30 14 -42 -10 -42 -11 0 -18 -4 -14 -10 3 -5 12 -7 19 -4 8 3 17 1
21 -5 3 -6 12 -11 18 -11 7 0 3 7 -7 15 -17 13 -17 15 -4 15 9 0 20 -5 23 -10
3 -6 11 -10 16 -10 6 0 8 4 5 8 -3 5 17 9 45 9 27 0 52 -3 55 -8 3 -5 22 -7
42 -4 20 3 31 2 24 -1 -7 -3 -25 -17 -39 -30 -23 -22 -23 -29 0 -25 4 1 10 -6
14 -15 3 -9 24 -24 45 -34 23 -10 35 -21 29 -25 -14 -8 -4 -25 15 -25 16 0 20
45 4 55 -17 10 -11 25 8 18 14 -5 13 -3 -3 10 -11 9 -15 17 -7 17 18 0 15 18
-5 23 -15 4 -14 5 3 6 11 0 25 -4 32 -11 6 -6 15 -8 19 -4 4 4 -3 16 -17 27
l-25 20 25 -3 c17 -2 26 -10 28 -24 2 -12 12 -30 23 -40 11 -10 20 -14 19 -9
-6 30 3 35 53 26 15 -2 6 -30 -13 -36 -11 -3 -20 -13 -20 -21 0 -24 62 -7 156
41 45 23 93 45 108 49 14 3 36 18 50 33 22 23 26 24 40 11 9 -9 13 -25 9 -39
-4 -21 -3 -20 11 5 12 22 13 32 5 42 -12 15 -9 17 15 8 8 -3 12 -12 9 -20 -6
-16 14 -19 36 -5 12 8 12 12 -2 26 -23 23 -21 38 4 32 12 -3 32 -2 45 3 32 13
42 -6 15 -31 -12 -11 -19 -25 -15 -31 4 -7 9 -6 14 2 4 7 14 10 22 8 11 -5 14
3 14 30 -1 36 0 37 36 37 40 0 49 -9 21 -20 -15 -5 -12 -9 16 -21 42 -18 41
-18 41 6 0 11 6 30 13 41 10 17 9 23 -1 26 -16 6 -5 23 15 23 11 0 14 -6 8
-27 -5 -22 -4 -25 8 -15 7 6 22 27 33 47 21 39 80 70 102 53 9 -8 12 -5 12 11
0 11 5 21 10 21 13 0 13 -16 -1 -41 -5 -11 -15 -16 -21 -13 -7 5 -9 2 -5 -9 5
-12 -1 -19 -18 -23 -28 -7 -34 -24 -9 -24 12 0 15 -7 12 -31 -6 -38 12 -48 48
-24 24 15 26 15 38 0 11 -16 13 -16 26 0 9 11 10 19 3 23 -6 4 -10 18 -9 32 1
21 -3 25 -26 25 -16 -1 -28 2 -28 6 0 11 50 45 78 53 19 6 22 4 22 -18 0 -32
18 -43 22 -14 3 20 4 21 20 5 9 -9 25 -17 35 -17 14 0 12 -4 -9 -18 -37 -22
-36 -33 2 -19 17 6 30 14 30 18 0 11 55 7 62 -5 5 -7 8 -6 8 4 0 21 -20 40
-42 40 -10 0 -18 4 -18 9 0 17 20 23 35 11 10 -8 19 -8 34 2 27 17 27 32 0 25
-18 -5 -20 -2 -15 19 5 17 2 26 -9 30 -22 9 -19 19 10 32 25 11 42 1 30 -17
-3 -6 4 -15 16 -22 20 -10 21 -9 16 10 -3 11 -1 24 4 27 5 3 9 -5 9 -18 0 -15
10 -29 29 -40 25 -14 32 -14 48 -2 10 7 27 14 38 14 10 0 34 14 52 32 35 34
47 20 14 -16 -86 -93 -252 -256 -260 -256 -6 0 -11 -6 -11 -12 0 -7 -18 -33
-40 -57 -22 -25 -40 -50 -40 -58 0 -7 -9 -13 -20 -13 -11 0 -20 -5 -20 -11 0
-15 -119 -124 -172 -159 -24 -15 -56 -42 -73 -60 -16 -18 -62 -57 -102 -86
-40 -30 -85 -66 -100 -80 -42 -39 -198 -145 -242 -164 -14 -6 -45 -26 -70 -44
-25 -19 -64 -42 -86 -53 -22 -11 -80 -43 -128 -71 -49 -29 -90 -52 -92 -52 -2
0 -96 -45 -210 -100 -113 -55 -209 -100 -214 -100 -9 0 -119 -45 -192 -78
-126 -58 -591 -194 -789 -231 -177 -33 -235 -41 -296 -42 -33 0 -120 -9 -194
-19 -114 -16 -186 -18 -455 -15 -176 1 -329 5 -340 8 -11 2 -49 8 -85 12 -112
11 -373 46 -425 56 -27 5 -93 16 -145 24 -93 14 -338 73 -392 94 -16 6 -28 8
-28 6 0 -2 -37 9 -82 26 -105 39 -226 79 -239 79 -11 0 -161 58 -239 93 -197
88 -594 298 -664 352 -23 17 -70 48 -106 70 -36 21 -67 42 -70 45 -3 3 -27 22
-55 40 -86 58 -297 226 -415 329 -141 123 -458 451 -509 525 -8 12 -40 51 -70
87 -31 36 -70 86 -87 110 -17 24 -76 107 -131 185 -55 78 -120 174 -143 215
-24 41 -48 81 -55 89 -13 15 -80 141 -186 350 -82 162 -224 522 -282 715 -93
311 -131 492 -177 845 -42 321 -52 623 -29 942 11 162 54 492 66 511 4 7 6 20
5 30 -2 10 3 17 12 17 12 0 16 10 17 38 2 137 19 222 42 222 7 0 12 15 13 33
1 45 10 107 25 158 7 24 12 48 10 53 -1 4 4 15 11 23 7 9 13 21 14 27 0 6 2
17 2 24 1 6 10 12 20 12 14 0 15 -2 2 -10z m40 0 c0 -5 -5 -10 -11 -10 -5 0
-7 5 -4 10 3 6 8 10 11 10 2 0 4 -4 4 -10z m109 -19 c-3 -6 -10 -7 -18 -2 -7
5 -10 14 -6 21 9 14 29 -2 24 -19z m-82 -353 c-3 -7 -5 -2 -5 12 0 14 2 19 5
13 2 -7 2 -19 0 -25z m108 -337 c3 -19 10 -42 15 -52 15 -27 12 -59 -5 -59 -9
0 -14 8 -13 23 1 12 -3 38 -9 57 -6 19 -14 49 -18 65 -6 27 -5 28 9 15 8 -8
18 -30 21 -49z m85 -171 c0 -5 -2 -10 -4 -10 -3 0 -8 5 -11 10 -3 6 -1 10 4
10 6 0 11 -4 11 -10z m-5 -50 c3 -5 -1 -10 -9 -10 -9 0 -16 5 -16 10 0 6 4 10
9 10 6 0 13 -4 16 -10z m-25 -132 l-1 -23 -19 24 c-11 13 -20 35 -20 48 l0 26
20 -26 c11 -14 20 -36 20 -49z m360 -32 c0 -11 -19 -15 -25 -6 -3 5 1 10 9 10
9 0 16 -2 16 -4z m240 -108 c0 -13 -23 -5 -28 10 -2 7 2 10 12 6 9 -3 16 -11
16 -16z m-390 -19 c0 -6 -4 -7 -10 -4 -5 3 -10 11 -10 16 0 6 5 7 10 4 6 -3
10 -11 10 -16z m28 -48 c5 -30 -18 -24 -29 8 -7 18 -6 22 9 19 9 -2 19 -14 20
-27z m-48 -3 c0 -5 -9 -4 -20 2 -11 6 -20 12 -20 14 0 2 9 2 20 -1 11 -3 20
-9 20 -15z m85 -68 c3 -5 3 -15 -1 -21 -6 -11 -23 6 -24 24 0 10 18 9 25 -3z
m53 -52 c7 -7 12 -18 12 -25 0 -11 -4 -11 -22 -1 -13 7 -25 14 -27 15 -5 3 10
23 18 23 4 0 12 -5 19 -12z m162 -518 c0 -5 -2 -10 -4 -10 -3 0 -8 5 -11 10
-3 6 -1 10 4 10 6 0 11 -4 11 -10z m79 -63 c1 -5 -3 -5 -9 -2 -5 3 -10 16 -9
28 0 21 1 21 9 2 5 -11 9 -24 9 -28z m21 -27 c0 -5 -4 -10 -9 -10 -6 0 -13 5
-16 10 -3 6 1 10 9 10 9 0 16 -4 16 -10z m170 -355 c0 -5 -5 -3 -10 5 -5 8
-10 20 -10 25 0 6 5 3 10 -5 5 -8 10 -19 10 -25z m95 -147 c5 -4 0 -6 -12 -6
-13 1 -19 7 -16 15 3 8 8 10 12 6 3 -4 10 -11 16 -15z m335 -3 c20 -24 6 -28
-15 -5 -10 11 -13 20 -8 20 6 0 16 -7 23 -15z m-290 -50 c-12 -14 -15 -14 -22
-1 -4 8 -5 22 -2 31 6 15 8 15 22 1 13 -13 13 -18 2 -31z m20 -20 c0 -8 -4
-15 -8 -15 -5 0 -9 7 -9 15 0 8 4 15 9 15 4 0 8 -7 8 -15z m45 -55 c3 -5 -1
-10 -9 -10 -9 0 -16 5 -16 10 0 6 4 10 9 10 6 0 13 -4 16 -10z m30 0 c3 -5 1
-10 -4 -10 -6 0 -11 5 -11 10 0 6 2 10 4 10 3 0 8 -4 11 -10z m75 -20 c0 -5
-2 -10 -4 -10 -3 0 -8 5 -11 10 -3 6 -1 10 4 10 6 0 11 -4 11 -10z m250 -10
c13 -8 13 -10 -2 -10 -9 0 -20 5 -23 10 -8 13 5 13 25 0z m925 -110 c10 -11
14 -20 9 -20 -5 0 -15 9 -22 20 -7 11 -11 20 -9 20 2 0 12 -9 22 -20z m-1047
-109 c11 -7 11 -9 -1 -14 -9 -3 -18 1 -21 9 -6 16 2 18 22 5z m1096 -19 c15
-12 19 -21 13 -27 -7 -7 -18 -3 -34 13 -13 12 -23 25 -23 27 0 11 23 4 44 -13z
m346 -212 c13 -8 13 -10 -2 -10 -9 0 -20 5 -23 10 -8 13 5 13 25 0z m-962 -39
c5 -34 -14 -49 -33 -25 -8 10 -14 24 -14 29 0 6 3 4 6 -2 6 -15 33 -17 33 -3
0 6 -4 10 -10 10 -5 0 -10 5 -10 11 0 20 25 2 28 -20z m622 -76 c0 -5 -5 -3
-10 5 -5 8 -10 20 -10 25 0 6 5 3 10 -5 5 -8 10 -19 10 -25z m-475 -116 c-4
-6 1 -17 11 -24 11 -8 14 -15 8 -15 -15 0 -46 35 -37 43 10 11 25 8 18 -4z
m443 -141 c8 -10 4 -13 -13 -14 -16 -1 -22 2 -18 12 6 17 17 18 31 2z m-68
-33 c0 -12 -19 -12 -23 0 -4 9 -1 12 9 8 7 -3 14 -7 14 -8z m160 -20 c7 -8 17
-12 24 -8 8 4 8 3 0 -7 -15 -15 -54 -4 -54 16 0 18 14 18 30 -1z m50 -70 c-7
-8 -17 -12 -22 -9 -5 3 -1 15 9 26 20 22 32 6 13 -17z m514 -310 c19 -19 41
-35 50 -35 8 0 18 -5 21 -11 4 -6 0 -9 -10 -7 -10 2 -20 -3 -23 -10 -2 -8 2
-12 13 -10 10 2 22 -5 29 -14 13 -21 -5 -42 -44 -53 -17 -4 -21 -3 -12 3 11 7
11 10 -2 15 -9 4 -16 14 -16 22 0 9 4 14 9 11 20 -12 -17 65 -42 88 -15 14
-27 28 -27 31 0 14 24 1 54 -30z m-20 -107 c6 -4 -1 -8 -15 -8 -30 0 -47 27
-21 32 9 2 19 -1 21 -7 2 -5 9 -13 15 -17z m-114 -18 c0 -5 -4 -10 -10 -10 -5
0 -10 5 -10 10 0 6 5 10 10 10 6 0 10 -4 10 -10z m110 -47 c0 -19 -13 -9 -16
12 -1 8 2 13 7 9 5 -3 9 -12 9 -21z m5694 -178 c-16 -24 -54 -35 -54 -16 0 16
18 22 22 9 3 -8 10 -5 19 10 7 12 17 22 22 22 4 0 0 -11 -9 -25z m-3599 -31
c9 -9 14 -18 11 -21 -2 -3 -14 5 -25 16 -12 12 -17 21 -12 21 5 0 17 -7 26
-16z m3508 -65 c-8 -31 -20 -31 -20 0 0 19 5 27 13 24 6 -2 9 -13 7 -24z
m-4967 -24 c20 -31 28 -31 56 -3 14 14 23 18 26 10 2 -7 8 -10 12 -7 5 3 14
-3 20 -14 10 -19 9 -19 -16 -6 -23 12 -29 12 -41 -1 -8 -8 -22 -14 -31 -14
-12 0 -13 -3 -4 -12 18 -18 14 -27 -9 -21 -21 6 -21 6 -4 -21 13 -19 24 -26
38 -22 19 5 19 4 1 -14 -17 -16 -20 -16 -31 -3 -7 9 -18 13 -26 10 -10 -4 -13
2 -10 21 3 15 7 34 10 42 10 24 3 44 -20 62 -19 15 -19 18 -5 18 10 0 25 -11
34 -25z m2614 -11 c0 -2 -12 -4 -26 -4 -14 0 -23 4 -20 9 6 8 46 4 46 -5z
m2310 -8 c0 -8 -5 -18 -11 -21 -5 -4 -14 -18 -19 -31 -5 -13 -14 -24 -20 -24
-14 0 -12 12 6 38 15 22 15 24 -2 37 -18 13 -17 14 14 15 21 0 32 -5 32 -14z
m-166 -12 c9 -22 8 -24 -9 -24 -8 0 -15 9 -15 20 0 24 15 27 24 4z m-4575 -26
c11 -10 13 -10 7 0 -9 15 6 16 21 1 15 -15 5 -39 -13 -32 -8 3 -14 0 -14 -6 0
-6 -11 -1 -25 11 -14 12 -25 25 -25 30 0 12 34 9 49 -4z m1196 2 c-26 -11 -45
-12 -45 -2 0 4 15 8 33 9 26 1 28 0 12 -7z m-450 -20 c3 -5 1 -10 -4 -10 -6 0
-11 5 -11 10 0 6 2 10 4 10 3 0 8 -4 11 -10z m580 0 c3 -6 -1 -7 -9 -4 -18 7
-21 14 -7 14 6 0 13 -4 16 -10z m-69 -25 c13 -14 20 -25 15 -25 -4 0 -18 11
-31 25 -13 14 -20 25 -15 25 4 0 18 -11 31 -25z m3364 21 c0 -11 -19 -15 -25
-6 -3 5 1 10 9 10 9 0 16 -2 16 -4z m-3830 -10 c0 -3 -4 -8 -10 -11 -5 -3 -10
-1 -10 4 0 6 5 11 10 11 6 0 10 -2 10 -4z m620 -6 c0 -5 -7 -10 -16 -10 -8 0
-12 5 -9 10 3 6 10 10 16 10 5 0 9 -4 9 -10z m-670 -4 c0 -3 -4 -8 -10 -11 -5
-3 -10 -1 -10 4 0 6 5 11 10 11 6 0 10 -2 10 -4z m198 -21 c-3 -13 -1 -26 4
-29 5 -2 3 -3 -4 -2 -17 3 -23 56 -7 56 7 0 9 -10 7 -25z m3712 4 c0 -11 -4
-17 -10 -14 -5 3 -10 13 -10 21 0 8 5 14 10 14 6 0 10 -9 10 -21z m-4520 -26
c0 -10 6 -12 20 -8 11 4 20 2 20 -4 0 -12 -43 -15 -54 -3 -4 4 -12 7 -17 7 -9
0 -10 11 -2 33 7 16 33 -4 33 -25z m4425 27 c3 -5 1 -10 -4 -10 -6 0 -11 5
-11 10 0 6 2 10 4 10 3 0 8 -4 11 -10z m-3771 -10 c14 -5 26 -15 26 -22 0 -9
-3 -9 -12 0 -7 7 -20 12 -30 12 -10 0 -18 5 -18 10 0 12 2 12 34 0z m2046 0
c12 -8 9 -9 -12 -8 -15 1 -24 6 -22 10 7 10 16 10 34 -2z m1650 -5 c0 -8 -4
-15 -9 -15 -13 0 -22 16 -14 24 11 11 23 6 23 -9z m104 -16 c-3 -6 -18 -15
-32 -21 -17 -6 -22 -12 -14 -15 8 -3 19 0 25 6 6 6 17 11 25 11 12 0 12 -3 2
-15 -7 -8 -9 -15 -4 -15 5 0 -4 -11 -20 -25 -20 -17 -32 -22 -37 -14 -4 6 -16
8 -28 4 -15 -4 -21 -3 -19 7 2 8 -6 12 -22 11 -22 -3 -23 -2 -5 6 11 5 43 25
70 44 46 32 74 39 59 16z m-3694 -10 c0 -6 -4 -7 -10 -4 -5 3 -10 11 -10 16 0
6 5 7 10 4 6 -3 10 -11 10 -16z m-229 -6 c13 -16 12 -17 -3 -4 -10 7 -18 15
-18 17 0 8 8 3 21 -13z m1107 -8 c-3 -3 -9 2 -12 12 -6 14 -5 15 5 6 7 -7 10
-15 7 -18z m2672 15 c0 -5 -7 -10 -16 -10 -8 0 -12 5 -9 10 3 6 10 10 16 10 5
0 9 -4 9 -10z m-4235 -10 c3 -5 1 -10 -4 -10 -6 0 -11 5 -11 10 0 6 2 10 4 10
3 0 8 -4 11 -10z m4450 -9 c-3 -6 -11 -11 -17 -11 -6 0 -6 6 2 15 14 17 26 13
15 -4z m-4638 -28 c-11 -12 -16 -12 -22 -2 -6 8 -4 10 4 5 8 -5 14 0 18 15 4
14 8 18 11 10 2 -7 -2 -20 -11 -28z m4023 27 c0 -5 -2 -10 -4 -10 -3 0 -8 5
-11 10 -3 6 -1 10 4 10 6 0 11 -4 11 -10z m-2237 -30 c14 -16 14 -20 2 -20 -8
0 -19 9 -25 20 -6 11 -7 20 -3 20 5 0 16 -9 26 -20z m-1550 3 c-7 -2 -19 -2
-25 0 -7 3 -2 5 12 5 14 0 19 -2 13 -5z m1794 1 c-3 -3 -12 -4 -19 -1 -8 3 -5
6 6 6 11 1 17 -2 13 -5z m1423 -14 c0 -5 -2 -10 -4 -10 -3 0 -8 5 -11 10 -3 6
-1 10 4 10 6 0 11 -4 11 -10z m399 -4 c7 -8 8 -16 4 -19 -11 -7 -45 18 -36 26
10 11 19 8 32 -7z m-2150 -16 c12 0 21 -6 21 -14 0 -11 -6 -12 -37 -1 -21 7
-39 18 -41 25 -3 9 1 9 16 1 11 -6 30 -11 41 -11z m2206 -9 c-3 -6 -11 -8 -17
-5 -6 4 -5 9 3 15 16 10 23 4 14 -10z m-1925 -1 c-20 -13 -53 -13 -45 0 3 6
18 10 33 10 21 0 24 -2 12 -10z m2438 -9 c3 -8 -1 -12 -9 -9 -7 2 -15 10 -17
17 -3 8 1 12 9 9 7 -2 15 -10 17 -17z m-2433 -11 c3 -5 1 -10 -4 -10 -6 0 -11
5 -11 10 0 6 2 10 4 10 3 0 8 -4 11 -10z m881 -35 c14 -14 29 -23 34 -20 5 3
11 1 15 -5 3 -6 -4 -14 -17 -19 -19 -7 -29 -3 -53 21 -24 23 -35 27 -60 22
-16 -4 -33 -11 -36 -17 -8 -11 -81 -38 -88 -32 -2 3 16 14 40 26 24 11 55 27
69 35 37 21 68 17 96 -11z m1548 16 c3 -5 -1 -11 -9 -15 -9 -3 -15 0 -15 9 0
16 16 20 24 6z m-679 -19 c0 -6 -3 -12 -7 -12 -5 0 -8 3 -7 6 0 4 -5 11 -13
16 -9 7 -8 8 7 6 11 -2 20 -9 20 -16z m-1165 -33 c0 -5 -16 -1 -35 8 -22 11
-31 19 -23 24 12 8 58 -17 58 -32z m1267 24 c3 -7 -3 -9 -16 -6 -15 4 -21 1
-21 -12 0 -11 -5 -15 -16 -11 -8 3 -25 1 -36 -5 -16 -9 -19 -8 -16 3 5 16 67
48 87 45 8 -1 16 -7 18 -14z m-1411 -8 c-11 -8 -38 -15 -60 -14 l-41 1 30 13
c17 8 44 14 60 14 29 0 29 0 11 -14z m598 6 c17 -7 26 -7 30 2 2 7 5 2 5 -10
1 -18 -4 -22 -29 -21 -16 1 -30 5 -30 10 0 4 -13 8 -29 8 -17 0 -33 5 -36 10
-8 13 55 13 89 1z m1176 -17 c0 -8 -7 -14 -15 -14 -17 0 -18 2 -9 24 7 18 24
12 24 -10z m-220 -9 c0 -7 -17 -15 -37 -18 -44 -8 -55 -1 -22 12 l24 10 -25 1
c-17 0 -21 3 -12 8 18 12 72 2 72 -13z m-2130 11 c0 -3 -4 -8 -10 -11 -5 -3
-10 -1 -10 4 0 6 5 11 10 11 6 0 10 -2 10 -4z m74 -28 c-3 -4 0 -16 5 -25 6
-10 11 -13 11 -7 0 13 50 6 50 -7 0 -5 -8 -5 -17 -2 -14 5 -13 1 6 -25 32 -46
13 -39 -38 13 -24 25 -54 45 -65 46 -12 0 -15 3 -8 6 6 2 12 11 12 18 0 10 5
11 24 2 13 -7 22 -15 20 -19z m1591 22 c4 -6 -7 -10 -25 -10 -18 0 -29 4 -25
10 3 6 15 10 25 10 10 0 22 -4 25 -10z m-240 -10 c8 -13 -5 -13 -25 0 -13 8
-13 10 2 10 9 0 20 -4 23 -10z m-825 -9 c0 -4 11 -6 25 -3 15 2 25 0 25 -7 0
-7 -20 -11 -49 -11 -50 0 -77 14 -44 23 30 8 43 7 43 -2z m1224 -17 c5 -14 4
-15 -9 -4 -17 14 -19 20 -6 20 5 0 12 -7 15 -16z m185 -3 c8 -5 9 -11 3 -15
-5 -3 -15 1 -22 9 -14 16 -3 20 19 6z m-997 -26 c3 -13 2 -22 -2 -20 -4 2 -22
0 -41 -4 -64 -17 -121 -22 -114 -11 3 5 19 10 36 10 31 0 109 30 109 42 0 17
8 6 12 -17z m196 5 c6 0 12 -4 12 -10 0 -5 -7 -7 -16 -3 -13 5 -15 2 -9 -15 4
-13 2 -22 -4 -22 -6 0 -11 7 -11 15 0 8 -7 15 -15 15 -8 0 -15 7 -15 16 0 12
6 15 23 10 12 -3 28 -6 35 -6z m517 -4 l30 -13 -30 -8 c-16 -4 -38 -9 -48 -12
-11 -3 -24 3 -32 14 -12 16 -11 19 8 25 32 9 39 8 72 -6z m-900 -44 c18 -11
18 -11 -8 -12 -15 0 -38 9 -49 20 -14 12 -24 16 -28 10 -4 -7 -15 -7 -31 -1
-25 10 -23 11 25 17 15 1 31 6 34 9 4 3 13 -3 22 -13 8 -11 24 -24 35 -30z
m541 37 c3 -5 -9 -9 -25 -9 -17 0 -31 4 -31 9 0 5 11 9 25 9 14 0 28 -4 31 -9z
m511 -5 c-3 -3 -12 -4 -19 -1 -8 3 -5 6 6 6 11 1 17 -2 13 -5z m-1559 -24 c-7
-10 -15 -15 -18 -10 -8 13 -60 -11 -60 -28 0 -7 -8 -12 -17 -11 -26 3 -75 -19
-68 -31 7 -12 3 -12 -19 -4 -9 3 -16 10 -16 16 0 5 6 6 13 3 6 -4 4 0 -5 8
-25 20 -12 28 33 21 32 -5 38 -3 44 16 6 18 9 20 16 9 6 -9 12 -10 17 -4 12
17 46 34 70 34 20 1 21 -1 10 -19z m1311 -7 c12 -13 12 -16 0 -24 -8 -5 -21
-9 -30 -9 -9 0 -40 -22 -68 -48 -29 -27 -57 -49 -64 -49 -7 0 -25 -8 -40 -18
-21 -13 -25 -20 -15 -26 15 -10 6 -12 -16 -3 -17 6 -10 34 9 34 7 0 23 9 37
19 13 11 36 23 51 26 14 4 29 15 32 26 4 10 19 26 36 36 16 9 29 21 29 26 0
13 -80 -3 -107 -20 -27 -18 -30 -9 -6 15 39 40 118 48 152 15z m-1579 7 c0
-12 -8 -12 -35 0 -18 8 -17 9 8 9 15 1 27 -3 27 -9z m345 0 c3 -6 -1 -7 -9 -4
-18 7 -21 14 -7 14 6 0 13 -4 16 -10z m-15 -22 c0 -6 -7 -7 -16 -4 -9 3 -21 6
-27 6 -7 0 -7 4 2 9 16 10 41 4 41 -11z m-316 -20 c21 -29 15 -32 -21 -12 -20
12 -36 15 -49 9 -17 -7 -18 -8 -1 -12 20 -5 23 -23 4 -23 -7 0 -18 9 -25 21
-8 12 -9 18 -3 14 6 -3 11 -2 11 4 0 10 21 18 52 20 9 0 24 -9 32 -21z m1180
7 c3 -9 0 -15 -8 -15 -8 0 -16 7 -20 15 -3 9 0 15 8 15 8 0 16 -7 20 -15z
m-903 -15 c10 0 21 -4 24 -10 4 -6 -8 -10 -29 -10 -30 0 -36 3 -36 22 0 17 3
19 12 10 7 -7 20 -12 29 -12z m356 4 c-3 -3 -12 -4 -19 -1 -8 3 -5 6 6 6 11 1
17 -2 13 -5z m508 -4 c-3 -5 -13 -10 -21 -10 -8 0 -14 5 -14 10 0 6 9 10 21
10 11 0 17 -4 14 -10z m-175 -10 c0 -5 -2 -10 -4 -10 -3 0 -8 5 -11 10 -3 6
-1 10 4 10 6 0 11 -4 11 -10z m400 0 c0 -5 -9 -10 -20 -10 -11 0 -20 5 -20 10
0 6 9 10 20 10 11 0 20 -4 20 -10z m-435 -10 c3 -5 1 -10 -4 -10 -6 0 -11 5
-11 10 0 6 2 10 4 10 3 0 8 -4 11 -10z m385 0 c0 -5 -5 -10 -11 -10 -5 0 -7 5
-4 10 3 6 8 10 11 10 2 0 4 -4 4 -10z m-1099 -18 c-7 -2 -18 1 -23 6 -8 8 -4
9 13 5 13 -4 18 -8 10 -11z m-181 -8 c0 -8 -5 -12 -10 -9 -6 4 -8 11 -5 16 9
14 15 11 15 -7z m227 10 c-3 -3 -12 -4 -19 -1 -8 3 -5 6 6 6 11 1 17 -2 13 -5z
m815 -26 c-10 -10 -44 0 -37 12 3 5 14 6 26 3 12 -3 17 -9 11 -15z m115 16
c-3 -3 -12 -4 -19 -1 -8 3 -5 6 6 6 11 1 17 -2 13 -5z m-1394 -29 c-7 -21 -13
-19 -13 6 0 11 4 18 10 14 5 -3 7 -12 3 -20z m494 1 c-2 -6 2 -17 10 -24 15
-15 17 -32 4 -32 -5 0 -15 14 -23 30 -7 17 -19 30 -26 30 -7 0 -11 4 -8 9 8
13 48 1 43 -13z m248 -17 c-5 -6 -12 -4 -20 8 -17 23 -8 38 11 18 9 -8 12 -20
9 -26z m719 23 c2 -4 -11 -8 -29 -8 -19 0 -32 3 -29 8 7 10 51 11 58 0z m66
-1 c0 -18 -18 -21 -30 -6 -10 13 -9 15 9 15 11 0 21 -4 21 -9z m-190 -32 c0
-6 -4 -7 -10 -4 -5 3 -10 11 -10 16 0 6 5 7 10 4 6 -3 10 -11 10 -16z m-1300
-15 c0 -8 -4 -14 -8 -14 -4 0 -8 9 -8 19 0 11 4 17 8 15 4 -3 8 -12 8 -20z
m1460 10 c0 -2 -7 -4 -15 -4 -8 0 -15 4 -15 10 0 5 7 7 15 4 8 -4 15 -8 15
-10z m-905 -12 c-3 -3 -11 0 -18 7 -9 10 -8 11 6 5 10 -3 15 -9 12 -12z m-785
-2 c0 -5 -2 -10 -4 -10 -3 0 -8 5 -11 10 -3 6 -1 10 4 10 6 0 11 -4 11 -10z
m674 -16 c3 -8 2 -12 -4 -9 -6 3 -10 10 -10 16 0 14 7 11 14 -7z m811 -34 c3
-5 1 -10 -4 -10 -6 0 -11 5 -11 10 0 6 2 10 4 10 3 0 8 -4 11 -10z"/>
<path d="M3350 7491 c0 -30 4 -41 15 -41 8 0 15 7 15 16 0 9 -5 12 -11 8 -8
-5 -10 1 -7 20 3 14 1 29 -3 32 -5 3 -9 -13 -9 -35z"/>
<path d="M3340 7331 c0 -6 5 -13 10 -16 6 -3 10 1 10 9 0 9 -4 16 -10 16 -5 0
-10 -4 -10 -9z"/>
<path d="M3347 7266 c-4 -10 -5 -21 -2 -24 9 -9 17 6 13 25 -3 17 -4 17 -11
-1z"/>
<path d="M3311 7206 c-1 -29 2 -37 10 -29 8 8 8 19 1 40 -10 28 -10 28 -11
-11z"/>
<path d="M3340 7181 c0 -6 4 -13 10 -16 6 -3 7 1 4 9 -7 18 -14 21 -14 7z"/>
<path d="M3445 7170 c3 -5 8 -10 11 -10 2 0 4 5 4 10 0 6 -5 10 -11 10 -5 0
-7 -4 -4 -10z"/>
<path d="M3424 7088 c9 -13 19 -31 23 -40 6 -21 23 -24 23 -5 0 16 -41 67 -54
67 -5 0 -1 -10 8 -22z"/>
<path d="M3301 6998 c-1 -16 4 -28 9 -28 12 0 12 8 0 35 -8 18 -9 17 -9 -7z"/>
<path d="M3507 6950 c7 -26 23 -36 23 -16 0 9 5 16 10 16 21 0 9 16 -14 18
-19 1 -23 -2 -19 -18z"/>
<path d="M3311 6903 c-1 -12 4 -25 10 -28 14 -9 27 4 13 13 -6 4 -14 14 -17
22 -4 10 -6 8 -6 -7z"/>
<path d="M3400 6868 c0 -9 5 -20 10 -23 13 -8 13 5 0 25 -8 13 -10 13 -10 -2z"/>
<path d="M3458 6758 c16 -28 32 -37 32 -18 0 5 7 7 15 4 8 -4 15 -2 15 4 0 16
-31 37 -56 37 -22 1 -22 0 -6 -27z"/>
<path d="M3424 6762 c-9 -5 -8 -11 2 -20 12 -11 14 -9 14 8 0 22 0 23 -16 12z"/>
<path d="M3595 6650 c3 -5 8 -10 11 -10 2 0 4 5 4 10 0 6 -5 10 -11 10 -5 0
-7 -4 -4 -10z"/>
<path d="M3450 6630 c0 -5 5 -10 10 -10 6 0 10 5 10 10 0 6 -4 10 -10 10 -5 0
-10 -4 -10 -10z"/>
<path d="M3776 6442 c-2 -4 -1 -14 5 -22 7 -12 9 -10 9 8 0 23 -5 28 -14 14z"/>
<path d="M3341 6384 c0 -11 3 -14 6 -6 3 7 2 16 -1 19 -3 4 -6 -2 -5 -13z"/>
<path d="M3840 6371 c0 -6 4 -13 10 -16 6 -3 7 1 4 9 -7 18 -14 21 -14 7z"/>
<path d="M3651 6365 c1 -19 18 -51 18 -35 0 8 -4 22 -9 30 -5 8 -9 11 -9 5z"/>
<path d="M3740 6331 c0 -5 11 -11 25 -13 28 -6 34 6 9 16 -22 8 -34 7 -34 -3z"/>
<path d="M3805 6320 c3 -5 8 -10 11 -10 2 0 4 5 4 10 0 6 -5 10 -11 10 -5 0
-7 -4 -4 -10z"/>
<path d="M3614 6304 c3 -9 6 -24 6 -35 0 -10 7 -19 15 -19 17 0 20 23 5 51
-13 23 -35 26 -26 3z"/>
<path d="M3750 6280 c0 -13 7 -20 20 -20 13 0 20 7 20 20 0 13 -7 20 -20 20
-13 0 -20 -7 -20 -20z"/>
<path d="M3860 6231 c0 -11 5 -23 10 -26 6 -3 10 3 10 14 0 11 -4 23 -10 26
-5 3 -10 -3 -10 -14z"/>
<path d="M3737 6210 c3 -11 7 -20 9 -20 2 0 4 9 4 20 0 11 -4 20 -9 20 -5 0
-7 -9 -4 -20z"/>
<path d="M3921 6154 c0 -11 3 -14 6 -6 3 7 2 16 -1 19 -3 4 -6 -2 -5 -13z"/>
<path d="M3923 6015 c11 -23 37 -35 37 -17 0 10 -33 42 -42 42 -4 0 -1 -11 5
-25z"/>
<path d="M3790 5990 c0 -5 5 -10 10 -10 6 0 10 5 10 10 0 6 -4 10 -10 10 -5 0
-10 -4 -10 -10z"/>
<path d="M3880 5977 c0 -7 6 -22 14 -33 22 -28 41 -6 20 24 -17 24 -34 29 -34
9z"/>
<path d="M3971 5963 c-1 -12 4 -25 9 -28 12 -7 12 2 0 30 -8 19 -9 19 -9 -2z"/>
<path d="M3760 5851 c0 -5 5 -13 10 -16 6 -3 10 -2 10 4 0 5 -4 13 -10 16 -5
3 -10 2 -10 -4z"/>
<path d="M4132 5780 c0 -14 2 -19 5 -12 2 6 2 18 0 25 -3 6 -5 1 -5 -13z"/>
<path d="M4086 5706 c3 -9 11 -16 16 -16 13 0 5 23 -10 28 -7 2 -10 -2 -6 -12z"/>
<path d="M4183 5695 c-6 -7 -9 -16 -6 -19 10 -10 43 -7 43 5 0 5 -4 8 -9 4 -5
-3 -11 1 -13 9 -2 11 -5 12 -15 1z"/>
<path d="M4137 5658 c-5 -13 10 -28 28 -28 10 0 12 30 3 36 -7 4 -8 3 -4 -4 4
-7 3 -12 -3 -12 -5 0 -11 5 -13 12 -3 8 -7 6 -11 -4z"/>
<path d="M4220 5606 c0 -9 5 -16 10 -16 6 0 10 4 10 9 0 6 -4 13 -10 16 -5 3
-10 -1 -10 -9z"/>
<path d="M4165 5586 c21 -32 27 -33 16 -4 -4 12 -14 24 -20 26 -8 3 -7 -5 4
-22z"/>
<path d="M3970 5584 c0 -29 26 -62 39 -49 7 7 3 20 -14 40 -22 27 -24 28 -25
9z"/>
<path d="M4185 5510 c3 -5 8 -10 11 -10 2 0 4 5 4 10 0 6 -5 10 -11 10 -5 0
-7 -4 -4 -10z"/>
<path d="M4261 5494 c0 -11 3 -14 6 -6 3 7 2 16 -1 19 -3 4 -6 -2 -5 -13z"/>
<path d="M4330 5350 c0 -5 5 -10 11 -10 5 0 7 5 4 10 -3 6 -8 10 -11 10 -2 0
-4 -4 -4 -10z"/>
<path d="M4635 5129 c-11 -16 -1 -19 13 -3 7 8 8 14 3 14 -5 0 -13 -5 -16 -11z"/>
<path d="M4600 4939 c0 -5 5 -7 10 -4 6 3 10 8 10 11 0 2 -4 4 -10 4 -5 0 -10
-5 -10 -11z"/>
<path d="M4704 4894 c3 -9 6 -18 6 -20 0 -2 7 -4 15 -4 13 0 14 4 5 20 -13 24
-35 27 -26 4z"/>
<path d="M4788 4885 c17 -14 33 -25 37 -25 3 0 -7 11 -23 25 -17 14 -33 25
-37 25 -3 0 7 -11 23 -25z"/>
<path d="M4804 4804 c3 -9 6 -18 6 -20 0 -2 7 -4 15 -4 13 0 14 4 5 20 -13 24
-35 27 -26 4z"/>
<path d="M4770 4790 c0 -5 5 -10 10 -10 6 0 10 5 10 10 0 6 -4 10 -10 10 -5 0
-10 -4 -10 -10z"/>
<path d="M4810 4730 c0 -5 5 -10 11 -10 5 0 7 5 4 10 -3 6 -8 10 -11 10 -2 0
-4 -4 -4 -10z"/>
<path d="M4821 4624 c0 -11 3 -14 6 -6 3 7 2 16 -1 19 -3 4 -6 -2 -5 -13z"/>
<path d="M5234 4544 c3 -9 6 -19 6 -22 0 -9 20 21 20 31 0 4 -7 7 -16 7 -11 0
-14 -5 -10 -16z"/>
<path d="M5210 4540 c0 -5 5 -10 11 -10 5 0 7 5 4 10 -3 6 -8 10 -11 10 -2 0
-4 -4 -4 -10z"/>
<path d="M5430 4330 c0 -5 7 -10 16 -10 8 0 12 5 9 10 -3 6 -10 10 -16 10 -5
0 -9 -4 -9 -10z"/>
<path d="M4805 4260 c3 -5 8 -10 11 -10 2 0 4 5 4 10 0 6 -5 10 -11 10 -5 0
-7 -4 -4 -10z"/>
<path d="M5947 4209 c7 -7 15 -10 18 -7 3 3 -2 9 -12 12 -14 6 -15 5 -6 -5z"/>
<path d="M5925 4160 c10 -11 20 -18 23 -15 7 6 -18 35 -31 35 -5 0 -2 -9 8
-20z"/>
<path d="M6175 4170 c-3 -6 1 -7 9 -4 18 7 21 14 7 14 -6 0 -13 -4 -16 -10z"/>
<path d="M6245 4110 c-9 -15 4 -30 26 -30 17 0 18 3 9 20 -12 22 -25 26 -35
10z"/>
<path d="M6090 4066 c0 -2 16 -6 35 -8 19 -2 35 0 35 4 0 4 -16 8 -35 8 -19 0
-35 -2 -35 -4z"/>
<path d="M6090 4022 c0 -24 23 -45 46 -40 26 5 21 21 -14 41 -31 18 -32 18
-32 -1z"/>
<path d="M6340 4033 c0 -19 22 -63 32 -63 5 0 6 10 3 23 -8 26 -35 57 -35 40z"/>
<path d="M6390 3951 c0 -12 40 -41 57 -41 7 0 13 5 13 10 0 6 -9 10 -20 10
-11 0 -23 7 -26 15 -7 16 -24 21 -24 6z"/>
<path d="M5570 3760 c0 -5 5 -10 10 -10 6 0 10 5 10 10 0 6 -4 10 -10 10 -5 0
-10 -4 -10 -10z"/>
<path d="M6700 3510 c-13 -8 -12 -10 3 -10 9 0 17 5 17 10 0 12 -1 12 -20 0z"/>
<path d="M6610 3510 c-9 -24 -6 -40 8 -41 11 0 12 -2 5 -6 -7 -2 -13 -12 -13
-20 0 -13 3 -13 15 -3 17 14 20 40 6 40 -5 0 -12 8 -14 18 -3 9 -6 15 -7 12z"/>
<path d="M5470 3492 c0 -11 27 -42 37 -42 3 0 -2 10 -13 23 -10 12 -20 24 -21
26 -2 2 -3 -1 -3 -7z"/>
<path d="M6683 3453 c-24 -2 -43 -8 -43 -14 0 -5 5 -9 11 -9 5 0 7 -4 4 -10
-3 -6 1 -7 9 -4 9 3 16 2 16 -2 0 -5 13 -15 30 -22 25 -12 28 -16 18 -32 -7
-11 -9 -22 -6 -25 9 -10 68 5 68 16 0 6 -6 7 -12 3 -10 -6 -10 -4 0 7 6 7 12
18 12 24 0 5 -4 4 -8 -2 -6 -10 -12 -10 -28 2 -19 14 -19 14 1 15 14 0 20 7
21 24 1 17 -2 23 -12 19 -8 -3 -14 0 -14 6 0 6 -6 10 -12 9 -7 -1 -32 -3 -55
-5z m67 -36 c0 -5 -4 -5 -10 -2 -5 3 -10 14 -10 23 0 15 2 15 10 2 5 -8 10
-19 10 -23z m10 -67 c0 -5 -7 -10 -15 -10 -8 0 -15 5 -15 10 0 6 7 10 15 10 8
0 15 -4 15 -10z"/>
<path d="M7281 3196 c-9 -11 -8 -15 5 -20 20 -8 39 7 30 23 -10 15 -21 14 -35
-3z"/>
<path d="M7336 3193 c-6 -14 -5 -15 5 -6 7 7 10 15 7 18 -3 3 -9 -2 -12 -12z"/>
<path d="M7556 3166 c3 -9 18 -16 32 -16 29 0 20 14 -15 25 -18 5 -22 3 -17
-9z"/>
<path d="M6890 3140 c0 -12 28 -25 36 -17 3 3 -4 10 -15 17 -15 7 -21 7 -21 0z"/>
<path d="M8051 3121 c-10 -6 -9 -10 3 -14 8 -3 18 -2 21 3 8 13 -9 20 -24 11z"/>
<path d="M11745 3110 c-3 -5 -1 -10 4 -10 6 0 11 5 11 10 0 6 -2 10 -4 10 -3
0 -8 -4 -11 -10z"/>
<path d="M7215 3100 c3 -5 8 -10 11 -10 2 0 4 5 4 10 0 6 -5 10 -11 10 -5 0
-7 -4 -4 -10z"/>
<path d="M8172 3090 c7 -10 14 -18 15 -16 6 6 -9 36 -18 36 -5 0 -4 -9 3 -20z"/>
<path d="M11785 3099 c-4 -6 -5 -12 -2 -15 2 -3 7 2 10 11 7 17 1 20 -8 4z"/>
<path d="M7650 3092 c0 -5 6 -17 14 -28 14 -18 15 -18 13 3 -1 20 -27 43 -27
25z"/>
<path d="M8000 3090 c0 -5 7 -10 15 -10 8 0 15 5 15 10 0 6 -7 10 -15 10 -8 0
-15 -4 -15 -10z"/>
<path d="M7900 3077 c0 -19 50 -41 63 -28 5 5 7 17 4 25 -8 20 -67 22 -67 3z"/>
<path d="M8086 3062 c-3 -6 3 -12 15 -15 12 -3 19 -1 16 6 -5 15 -24 20 -31 9z"/>
<path d="M7810 3050 c0 -13 28 -25 38 -16 3 4 0 11 -8 16 -20 13 -30 12 -30 0z"/>
<path d="M7944 3015 c-4 -8 1 -26 10 -40 17 -27 96 -70 96 -53 0 7 4 7 13 1
15 -13 75 -15 82 -3 3 4 -25 13 -62 20 -74 13 -107 26 -98 41 10 15 -5 49 -21
49 -8 0 -17 -7 -20 -15z"/>
<path d="M7845 2990 c-7 -11 18 -24 35 -18 6 2 1 9 -9 15 -13 8 -22 9 -26 3z"/>
<path d="M9786 2971 c-19 -7 -18 -8 4 -14 26 -7 43 0 35 14 -7 10 -13 10 -39
0z"/>
<path d="M11480 2965 c0 -5 5 -17 10 -25 5 -8 10 -10 10 -5 0 6 -5 17 -10 25
-5 8 -10 11 -10 5z"/>
<path d="M11360 2928 c0 -13 44 -27 55 -17 5 5 17 9 27 9 10 0 18 4 18 10 0 5
-22 9 -50 9 -27 -1 -50 -6 -50 -11z"/>
<path d="M11126 2914 c-8 -22 -7 -34 3 -34 5 0 11 11 13 25 6 28 -6 34 -16 9z"/>
<path d="M11210 2920 c0 -5 6 -7 14 -4 8 3 17 0 21 -5 3 -6 11 -8 17 -5 6 4 5
10 -3 15 -19 12 -49 11 -49 -1z"/>
<path d="M11509 2881 c-13 -11 -21 -22 -18 -25 3 -3 16 5 29 19 28 30 22 33
-11 6z"/>
<path d="M11280 2880 c0 -5 5 -10 11 -10 5 0 7 5 4 10 -3 6 -8 10 -11 10 -2 0
-4 -4 -4 -10z"/>
<path d="M11320 2880 c-8 -5 -11 -12 -7 -16 4 -4 15 0 24 9 18 18 8 23 -17 7z"/>
<path d="M9296 2871 c-18 -7 -18 -8 -2 -14 19 -8 36 -1 36 14 0 10 -7 11 -34
0z"/>
<path d="M9840 2871 c0 -5 5 -13 10 -16 6 -3 10 -2 10 4 0 5 -4 13 -10 16 -5
3 -10 2 -10 -4z"/>
<path d="M10815 2870 c3 -5 11 -10 16 -10 6 0 7 5 4 10 -3 6 -11 10 -16 10 -6
0 -7 -4 -4 -10z"/>
<path d="M9360 2855 c-10 -12 -9 -15 6 -16 51 -4 70 -7 87 -14 10 -4 17 -3 17
4 0 6 -3 11 -7 12 -33 3 -59 11 -61 19 -5 15 -28 12 -42 -5z"/>
<path d="M11030 2865 c-1 -5 -2 -14 -1 -18 1 -5 -3 -6 -8 -3 -5 4 -12 2 -15
-3 -9 -14 14 -25 26 -13 5 5 8 18 5 28 -3 11 -6 15 -7 9z"/>
<path d="M11070 2860 c0 -5 5 -10 11 -10 5 0 7 5 4 10 -3 6 -8 10 -11 10 -2 0
-4 -4 -4 -10z"/>
<path d="M11175 2860 c-16 -7 -17 -9 -3 -9 9 -1 20 4 23 9 7 11 7 11 -20 0z"/>
<path d="M10002 2849 c2 -7 10 -15 17 -17 8 -3 12 1 9 9 -2 7 -10 15 -17 17
-8 3 -12 -1 -9 -9z"/>
<path d="M10150 2850 c0 -5 7 -7 15 -4 8 4 15 8 15 10 0 2 -7 4 -15 4 -8 0
-15 -4 -15 -10z"/>
<path d="M10090 2840 c0 -12 28 -25 36 -17 3 3 -4 10 -15 17 -15 7 -21 7 -21
0z"/>
<path d="M9755 2830 c-8 -13 24 -33 42 -26 10 4 14 3 9 -1 -4 -4 -22 -8 -39
-8 -33 0 -37 -4 -37 -30 0 -11 9 -15 29 -13 19 1 27 6 24 15 -4 10 2 13 22 9
16 -3 33 -10 39 -16 18 -18 92 -8 80 11 -3 5 -21 9 -40 9 -19 0 -34 5 -34 10
0 6 10 10 22 10 27 0 17 12 -14 16 -13 2 -40 7 -61 13 -20 5 -39 5 -42 1z"/>
<path d="M10226 2833 c-11 -3 -26 -11 -33 -18 -11 -12 -9 -16 9 -29 13 -9 24
-12 28 -6 4 6 18 6 38 1 40 -12 39 7 -1 28 -21 10 -25 16 -15 22 14 9 5 10
-26 2z"/>
<path d="M11146 2809 c-8 -43 -8 -49 6 -49 14 0 107 62 108 71 0 4 -19 2 -42
-4 -31 -8 -43 -7 -46 1 -7 22 -19 12 -26 -19z"/>
<path d="M10145 2820 c4 -6 -4 -14 -17 -19 -13 -6 -18 -10 -12 -10 6 -1 15 -9
20 -20 7 -14 14 -16 29 -10 17 6 17 8 3 8 -19 1 -26 21 -8 21 16 0 12 27 -6
34 -8 3 -12 2 -9 -4z"/>
<path d="M9638 2813 c7 -3 16 -2 19 1 4 3 -2 6 -13 5 -11 0 -14 -3 -6 -6z"/>
<path d="M9925 2810 c-18 -29 33 -41 56 -14 11 14 10 16 -6 13 -11 -2 -25 0
-32 4 -6 4 -14 3 -18 -3z"/>
<path d="M10450 2810 c0 -5 5 -10 10 -10 6 0 10 5 10 10 0 6 -4 10 -10 10 -5
0 -10 -4 -10 -10z"/>
<path d="M8075 2800 c3 -5 8 -10 11 -10 2 0 4 5 4 10 0 6 -5 10 -11 10 -5 0
-7 -4 -4 -10z"/>
<path d="M10045 2790 c3 -5 17 -10 31 -10 13 0 24 5 24 10 0 6 -14 10 -31 10
-17 0 -28 -4 -24 -10z"/>
<path d="M9435 2770 c3 -5 8 -10 11 -10 2 0 4 5 4 10 0 6 -5 10 -11 10 -5 0
-7 -4 -4 -10z"/>
<path d="M9310 2760 c0 -14 26 -23 41 -15 8 6 7 10 -2 16 -19 12 -39 11 -39
-1z"/>
<path d="M10100 2753 c0 -13 5 -23 10 -23 13 0 13 11 0 30 -8 12 -10 11 -10
-7z"/>
<path d="M9380 2750 c0 -5 5 -10 11 -10 5 0 7 5 4 10 -3 6 -8 10 -11 10 -2 0
-4 -4 -4 -10z"/>
<path d="M10243 2753 c9 -2 23 -2 30 0 6 3 -1 5 -18 5 -16 0 -22 -2 -12 -5z"/>
<path d="M10880 2746 c0 -9 5 -16 10 -16 6 0 10 4 10 9 0 6 -4 13 -10 16 -5 3
-10 -1 -10 -9z"/>
<path d="M11000 2750 c0 -5 5 -10 11 -10 5 0 7 5 4 10 -3 6 -8 10 -11 10 -2 0
-4 -4 -4 -10z"/>
<path d="M11180 2750 c-9 -6 -10 -10 -3 -10 6 0 15 5 18 10 8 12 4 12 -15 0z"/>
<path d="M9272 2738 c3 -7 13 -15 22 -16 12 -3 17 1 14 10 -3 7 -13 15 -22 16
-12 3 -17 -1 -14 -10z"/>
<path d="M9226 2725 c4 -8 8 -15 10 -15 2 0 4 7 4 15 0 8 -4 15 -10 15 -5 0
-7 -7 -4 -15z"/>
<path d="M9415 2730 c3 -5 11 -10 16 -10 6 0 7 5 4 10 -3 6 -11 10 -16 10 -6
0 -7 -4 -4 -10z"/>
<path d="M9366 2714 c-7 -18 21 -31 36 -16 7 7 4 13 -10 21 -16 8 -21 7 -26
-5z"/>
<path d="M8938 2713 c7 -3 16 -2 19 1 4 3 -2 6 -13 5 -11 0 -14 -3 -6 -6z"/>
<path d="M10438 2705 c-3 -4 -20 -7 -37 -7 -17 -1 -31 -5 -31 -11 0 -5 16 -7
38 -4 46 8 82 -1 82 -19 0 -16 26 -19 35 -4 3 6 1 10 -5 10 -6 0 -9 4 -5 9 3
5 2 12 -2 14 -16 9 -69 18 -75 12z"/>
<path d="M9225 2680 c3 -5 10 -10 16 -10 5 0 9 5 9 10 0 6 -7 10 -16 10 -8 0
-12 -4 -9 -10z"/>
<path d="M9900 2681 c0 -5 7 -11 15 -15 8 -3 15 -1 15 3 0 5 -7 11 -15 15 -8
3 -15 1 -15 -3z"/>
<path d="M9120 2660 c20 -13 33 -13 25 0 -3 6 -14 10 -23 10 -15 0 -15 -2 -2
-10z"/>
<path d="M9559 2649 c-10 -6 -7 -9 14 -9 29 0 35 5 14 13 -8 3 -20 1 -28 -4z"/>
<path d="M10405 2640 c-25 -6 -27 -8 -12 -15 10 -4 28 -3 39 2 29 13 11 21
-27 13z"/>
<path d="M10788 2643 c7 -3 16 -2 19 1 4 3 -2 6 -13 5 -11 0 -14 -3 -6 -6z"/>
<path d="M9080 2620 c6 -11 15 -20 20 -20 6 0 5 9 -2 20 -7 11 -16 20 -21 20
-4 0 -3 -9 3 -20z"/>
<path d="M9536 2622 c-10 -9 5 -22 24 -22 29 0 33 17 5 22 -13 3 -27 3 -29 0z"/>
<path d="M9980 2610 c0 -5 7 -10 16 -10 8 0 12 5 9 10 -3 6 -10 10 -16 10 -5
0 -9 -4 -9 -10z"/>
<path d="M10590 2603 c-24 -12 -24 -13 -3 -13 12 0 25 5 28 11 11 16 2 17 -25
2z"/>
<path d="M8677 2589 c7 -7 15 -10 18 -7 3 3 -2 9 -12 12 -14 6 -15 5 -6 -5z"/>
<path d="M10723 2584 c0 -16 13 -19 21 -5 3 5 0 11 -7 14 -8 3 -14 -1 -14 -9z"/>
<path d="M8888 2583 c7 -3 16 -2 19 1 4 3 -2 6 -13 5 -11 0 -14 -3 -6 -6z"/>
<path d="M9680 2580 c0 -5 5 -10 10 -10 6 0 10 5 10 10 0 6 -4 10 -10 10 -5 0
-10 -4 -10 -10z"/>
<path d="M10046 2557 c3 -10 9 -15 12 -12 3 3 0 11 -7 18 -10 9 -11 8 -5 -6z"/>
<path d="M10345 2560 c-3 -5 -1 -10 4 -10 6 0 11 5 11 10 0 6 -2 10 -4 10 -3
0 -8 -4 -11 -10z"/>
<path d="M8552 2538 c3 -7 15 -14 29 -16 23 -2 23 -2 5 13 -24 18 -39 20 -34
3z"/>
<path d="M9188 2533 c7 -3 16 -2 19 1 4 3 -2 6 -13 5 -11 0 -14 -3 -6 -6z"/>
<path d="M8468 2523 c6 -2 18 -2 25 0 6 3 1 5 -13 5 -14 0 -19 -2 -12 -5z"/>
<path d="M10514 2505 c21 -16 32 -13 21 4 -3 6 -14 11 -23 11 -15 -1 -15 -2 2
-15z"/>
<path d="M10676 2511 c-15 -6 -16 -10 -7 -15 8 -5 20 -2 29 8 17 17 9 19 -22
7z"/>
<path d="M10110 2470 c0 -5 5 -10 11 -10 5 0 7 5 4 10 -3 6 -8 10 -11 10 -2 0
-4 -4 -4 -10z"/>
<path d="M8767 2439 c7 -7 15 -10 18 -7 3 3 -2 9 -12 12 -14 6 -15 5 -6 -5z"/>
<path d="M9740 2410 c0 -5 9 -10 19 -10 11 0 23 5 26 10 4 6 -5 10 -19 10 -14
0 -26 -4 -26 -10z"/>
<path d="M9078 2403 c7 -3 16 -2 19 1 4 3 -2 6 -13 5 -11 0 -14 -3 -6 -6z"/>
<path d="M6590 3840 c0 -5 5 -10 10 -10 6 0 10 5 10 10 0 6 -4 10 -10 10 -5 0
-10 -4 -10 -10z"/>
<path d="M10875 3060 c-16 -7 -17 -9 -3 -9 9 -1 20 4 23 9 7 11 7 11 -20 0z"/>
</g>
</svg>
